<svg width="18" height="18" viewBox="0 0 18 18" fill="none" xmlns="http://www.w3.org/2000/svg">
<g clip-path="url(#clip0_1318_4099)">
<path fill-rule="evenodd" clip-rule="evenodd" d="M3.75 0.75C2.09314 0.75 0.75 2.09314 0.75 3.75V14.25C0.75 15.9068 2.09314 17.25 3.75 17.25H14.25C15.9068 17.25 17.25 15.9068 17.25 14.25V3.75C17.25 2.09314 15.9068 0.75 14.25 0.75H3.75ZM7.26136 5.45455C7.26136 4.09894 8.36033 3 9.71588 3H11.8977C12.0484 3 12.1705 3.12211 12.1705 3.27273V5.45455C12.1705 5.60517 12.0484 5.72727 11.8977 5.72727H10.8068C10.3549 5.72727 9.98865 6.09359 9.98865 6.54545V7.36364H11.8977C11.9817 7.36364 12.061 7.40233 12.1127 7.46852C12.1644 7.53472 12.1827 7.62105 12.1623 7.7025L11.6168 9.88433C11.5865 10.0057 11.4774 10.0909 11.3523 10.0909H9.98865V14.7273C9.98865 14.8779 9.86655 15 9.71588 15H7.53412C7.38346 15 7.26136 14.8779 7.26136 14.7273V10.0909H5.89773C5.74711 10.0909 5.625 9.96878 5.625 9.81818V7.63635C5.625 7.48574 5.74711 7.36364 5.89773 7.36364H7.26136V5.45455Z" fill="#333333"/>
</g>
<defs>
<clipPath id="clip0_1318_4099">
<rect width="18" height="18" fill="white"/>
</clipPath>
</defs>
</svg>
