<svg width="18" height="18" viewBox="0 0 18 18" fill="none" xmlns="http://www.w3.org/2000/svg">
<g clip-path="url(#clip0_1318_4105)">
<path fill-rule="evenodd" clip-rule="evenodd" d="M3.75 0.75C2.09314 0.75 0.75 2.09314 0.75 3.75V14.25C0.75 15.9068 2.09314 17.25 3.75 17.25H14.25C15.9068 17.25 17.25 15.9068 17.25 14.25V3.75C17.25 2.09314 15.9068 0.75 14.25 0.75H3.75ZM3.375 6.75C3.375 4.88604 4.88604 3.375 6.75 3.375H11.25C13.114 3.375 14.625 4.88604 14.625 6.75V11.25C14.625 13.114 13.114 14.625 11.25 14.625H6.75C4.88604 14.625 3.375 13.114 3.375 11.25V6.75ZM6.75 4.125C5.30025 4.125 4.125 5.30025 4.125 6.75V11.25C4.125 12.6997 5.30025 13.875 6.75 13.875H11.25C12.6997 13.875 13.875 12.6997 13.875 11.25V6.75C13.875 5.30025 12.6997 4.125 11.25 4.125H6.75ZM12.75 6.125C12.75 6.47017 12.4702 6.75 12.125 6.75C11.7798 6.75 11.5 6.47017 11.5 6.125C11.5 5.77982 11.7798 5.5 12.125 5.5C12.4702 5.5 12.75 5.77982 12.75 6.125ZM6.125 9C6.125 7.41218 7.41218 6.125 9 6.125C10.5878 6.125 11.875 7.41218 11.875 9C11.875 10.5878 10.5878 11.875 9 11.875C7.41218 11.875 6.125 10.5878 6.125 9ZM9 6.875C7.8264 6.875 6.875 7.8264 6.875 9C6.875 10.1736 7.8264 11.125 9 11.125C10.1736 11.125 11.125 10.1736 11.125 9C11.125 7.8264 10.1736 6.875 9 6.875Z" fill="#333333"/>
</g>
<defs>
<clipPath id="clip0_1318_4105">
<rect width="18" height="18" fill="white"/>
</clipPath>
</defs>
</svg>
