<svg width="18" height="18" viewBox="0 0 18 18" fill="none" xmlns="http://www.w3.org/2000/svg">
<g clip-path="url(#clip0_1318_4101)">
<path fill-rule="evenodd" clip-rule="evenodd" d="M3.75 0.75C2.09314 0.75 0.75 2.09314 0.75 3.75V14.25C0.75 15.9068 2.09314 17.25 3.75 17.25H14.25C15.9068 17.25 17.25 15.9068 17.25 14.25V3.75C17.25 2.09314 15.9068 0.75 14.25 0.75H3.75ZM4.65341 5.93182C5.35945 5.93182 5.93182 5.35945 5.93182 4.65341C5.93182 3.94736 5.35945 3.375 4.65341 3.375C3.94736 3.375 3.375 3.94736 3.375 4.65341C3.375 5.35945 3.94736 5.93182 4.65341 5.93182ZM5.93182 14.625V6.95455H3.375V14.625H5.93182ZM9.25568 6.95455H6.95455V14.625H9.25568V9.9978C9.55215 9.5157 10.0635 9 10.7898 9C11.8125 9 12.0682 10.0227 12.0682 10.5341V14.625H14.625V10.5341C14.625 9.1638 14.0269 6.95455 11.8125 6.95455C10.4041 6.95455 9.62205 7.46838 9.25568 7.9497V6.95455Z" fill="#333333"/>
</g>
<defs>
<clipPath id="clip0_1318_4101">
<rect width="18" height="18" fill="white"/>
</clipPath>
</defs>
</svg>
