<svg width="18" height="18" viewBox="0 0 18 18" fill="none" xmlns="http://www.w3.org/2000/svg">
<g clip-path="url(#clip0_1318_4103)">
<path fill-rule="evenodd" clip-rule="evenodd" d="M3.75 0.75C2.09314 0.75 0.75 2.09314 0.75 3.75V14.25C0.75 15.9068 2.09314 17.25 3.75 17.25H14.25C15.9068 17.25 17.25 15.9068 17.25 14.25V3.75C17.25 2.09314 15.9068 0.75 14.25 0.75H3.75ZM13.8572 7.06597C13.9299 10.0519 11.5184 16.0996 3 12.7933C4.12966 12.7933 5.97143 12.3802 6.42857 11.9231C5.76191 11.8279 4.42857 11.3517 4.42857 10.2088H5.57143C5.55268 10.1995 5.533 10.1896 5.51248 10.1795C4.90777 9.87915 3.57142 9.21532 3.57142 7.6374C3.85714 7.92315 4.32443 8.0397 4.71428 7.92315C4.12949 7.41426 2.82989 5.96033 3.85714 4.49455C4.71428 5.44694 6.88571 7.3517 8.71425 7.3517C8.42858 6.58979 8.71425 5.06597 10.1428 4.49455C11.5715 3.92313 12.5932 4.42987 13 5.06598C13.4986 5.02676 13.9462 4.76935 14.2498 4.5947C14.3167 4.55623 14.3766 4.52177 14.4286 4.49455C14.4286 4.51302 14.4286 4.53186 14.4287 4.55104C14.4301 4.95987 14.4319 5.52285 13.8442 5.92311C14.1299 6.13804 14.4286 6.22338 15 5.92311C15 6.40625 14.5491 6.87722 13.8572 7.06597Z" fill="#333333"/>
</g>
<defs>
<clipPath id="clip0_1318_4103">
<rect width="18" height="18" fill="white"/>
</clipPath>
</defs>
</svg>
